<svg id="canvas" height="auto" xmlns="http://www.w3.org/2000/svg" version="1.1" xmlns:xlink="http://www.w3.org/1999/xlink" viewBox="0 0 1920 1080" width="auto" style="width: auto; height: auto;"><rect width="1920" height="1080" fill="#fafffd"/><svg width="85.26060934171932" height="85.26060934171932" stroke-width="10" stroke="#59c9a5" fill="none" x="530.4660926475042" y="929.0569068068552"><line x1="0" y1="21.31515233542983" x2="42.63030467085966" y2="21.31615233542983"/><line x1="21.31515233542983" y1="0" x2="21.31615233542983" y2="42.63030467085966"/></svg><svg width="105.6494902831305" height="105.6494902831305" stroke-width="10" stroke="#59c9a5" fill="none" x="1358.3092907595171" y="700.7263565181321"><line x1="0" y1="26.412372570782626" x2="52.82474514156525" y2="26.413372570782627"/><line x1="26.412372570782626" y1="0" x2="26.413372570782627" y2="52.82474514156525"/></svg><circle r="15.678707396756977" cx="15.678707396756977" cy="15.678707396756977" transform="matrix(1,0,0,1,811.7409915469277,164.89653220925368)" stroke-width="10" stroke="#59c9a5" fill="none"/><polyline points="1194.5931396484375,1100.5698793575511 1225.0376791083552,1070.1253398976335 1255.482218568273,1100.5698793575511 1285.9267580281908,1070.1253398976335 1316.3712974881084,1100.5698793575511 1346.8158369480261,1070.1253398976335 1377.2603764079438,1100.5698793575511" stroke-width="10" stroke="#59c9a5" fill="none"/><circle r="19.376906575813898" cx="19.376906575813898" cy="19.376906575813898" transform="matrix(1,0,0,1,1765.6073797510553,584.3971820057999)" stroke-width="10" stroke="#59c9a5" fill="none"/><svg width="70.91788628478174" height="70.91788628478174" stroke-width="10" stroke="#59c9a5" fill="none" x="1128.4269414527355" y="146.4713678662433"><line x1="0" y1="17.729471571195436" x2="35.45894314239087" y2="17.730471571195437"/><line x1="17.729471571195436" y1="0" x2="17.730471571195437" y2="35.45894314239087"/></svg><polyline points="1909.2579345703125,408.3909514687077 1938.243768032981,379.4051180060393 1967.2296014956496,408.3909514687077 1996.215434958318,379.4051180060393 2025.2012684209863,408.3909514687077 2054.1871018836546,379.4051180060393 2083.1729353463234,408.3909514687077" stroke-width="10" stroke="#59c9a5" fill="none"/><circle r="11.69246050265695" cx="11.69246050265695" cy="11.69246050265695" transform="matrix(1,0,0,1,1853.6446028475382,567.2933962203218)" stroke-width="10" stroke="#59c9a5" fill="none"/><svg width="118.24258628301487" height="118.24258628301487" stroke-width="10" stroke="#59c9a5" fill="none" x="658.9933464725082" y="886.0521842654143"><line x1="0" y1="29.56064657075372" x2="59.12129314150744" y2="29.56164657075372"/><line x1="29.56064657075372" y1="0" x2="29.56164657075372" y2="59.12129314150744"/></svg><polyline points="202.456787109375,173.42925063082953 236.33161899980362,139.55441874040088 270.20645089023225,173.42925063082953 304.0812827806609,139.55441874040088 337.95611467108955,173.42925063082953 371.8309465615182,139.55441874040088 405.7057784519468,173.42925063082953" stroke-width="10" stroke="#59c9a5" fill="none"/><svg width="97.71178866799765" height="97.71178866799765" stroke-width="10" stroke="#59c9a5" fill="none" x="1863.0736714409836" y="246.14048591936168"><line x1="0" y1="24.427947166999413" x2="48.855894333998826" y2="24.428947166999414"/><line x1="24.427947166999413" y1="0" x2="24.428947166999414" y2="48.855894333998826"/></svg><polyline points="747.0037231445312,400.4132063354144 791.6115734054046,355.8053560745411 836.2194236662777,400.4132063354144 880.827273927151,355.8053560745411 925.4351241880242,400.4132063354144 970.0429744488974,355.8053560745411 1014.6508247097706,400.4132063354144" stroke-width="10" stroke="#59c9a5" fill="none"/><circle r="22.79546390788842" cx="22.79546390788842" cy="22.79546390788842" transform="matrix(1,0,0,1,762.0211910984455,756.7574806750666)" stroke-width="10" stroke="#59c9a5" fill="none"/><svg width="47.99419243431004" height="47.99419243431004" stroke-width="10" stroke="#59c9a5" fill="none" x="493.5357667074074" y="5.1525857828767325"><line x1="0" y1="11.99854810857751" x2="23.99709621715502" y2="11.999548108577509"/><line x1="11.99854810857751" y1="0" x2="11.999548108577509" y2="23.99709621715502"/></svg><svg width="99.99994545492925" height="99.99994545492925" stroke-width="10" stroke="#59c9a5" fill="none" x="1231.5015090023173" y="190.19097177768396"><line x1="0" y1="24.99998636373231" x2="49.99997272746462" y2="25.000986363732313"/><line x1="24.99998636373231" y1="0" x2="25.000986363732313" y2="49.99997272746462"/></svg><svg width="51.94396039487578" height="51.94396039487578" stroke-width="10" stroke="#59c9a5" fill="none" x="886.813001857208" y="427.4112708016715"><line x1="0" y1="12.985990098718945" x2="25.97198019743789" y2="12.986990098718945"/><line x1="12.985990098718945" y1="0" x2="12.986990098718945" y2="25.97198019743789"/></svg><svg width="51.109048291163134" height="51.109048291163134" stroke-width="10" stroke="#59c9a5" fill="none" x="692.9871624151873" y="584.7306353428922"><line x1="0" y1="12.777262072790784" x2="25.554524145581567" y2="12.778262072790783"/><line x1="12.777262072790784" y1="0" x2="12.778262072790783" y2="25.554524145581567"/></svg><circle r="17.8799113330923" cx="17.8799113330923" cy="17.8799113330923" transform="matrix(1,0,0,1,1086.7703711671704,824.5755924936319)" stroke-width="10" stroke="#59c9a5" fill="none"/><polyline points="1129.061279296875,70.07992330020487 1152.356723855474,46.78447874160575 1175.652168414073,70.07992330020487 1198.9476129726722,46.78447874160575 1222.2430575312715,70.07992330020487 1245.5385020898705,46.78447874160575 1268.8339466484695,70.07992330020487" stroke-width="10" stroke="#59c9a5" fill="none"/><svg width="56.163743285167726" height="56.163743285167726" stroke-width="10" stroke="#59c9a5" fill="none" x="707.1059064107737" y="527.4319120439146"><line x1="0" y1="14.040935821291932" x2="28.081871642583863" y2="14.041935821291931"/><line x1="14.040935821291932" y1="0" x2="14.041935821291931" y2="28.081871642583863"/></svg></svg>
